#!OML:ASF F:\VICON\USERDATA\INSTALL\rory3\rory3.ASF
:FULLY-SPECIFIED
:DEGREES
346
root 5.56496 17.7512 34.4701 -2.50835 -5.0347 -3.70249
lowerback 9.54372 2.56689 2.7885
upperback 0.511962 3.7547 0.827159
thorax -4.69008 1.80355 -1.20398
lowerneck -17.0996 -2.75097 -1.46658
upperneck 18.8236 -3.70066 1.32637
head 8.75855 -1.70151 0.230222
rclavicle -5.20567e-015 6.65929e-015
rhumerus -27.1717 -15.7215 -80.4655
rradius 30.875
rwrist 0.822488
rhand -17.3123 22.4364
rfingers 7.12502
rthumb 8.93398 -7.35448
lclavicle -5.20567e-015 6.65929e-015
lhumerus -37.4586 11.068 78.3313
lradius 17.6871
lwrist 2.57608
lhand -25.7874 13.1289
lfingers 7.12502
lthumb 0.751039 43.1073
rfemur 2.31583 3.1504 27.9747
rtibia 54.425
rfoot 13.0406 0.636648
rtoes 3.48212
lfemur -22.1955 -1.61092 -17.7785
ltibia 29.5244
lfoot -4.17442 -6.22553
ltoes 1.2697
347
root 5.57781 17.7706 34.6671 -2.71961 -5.32269 -3.09632
lowerback 9.73503 2.61472 2.15082
upperback 0.598993 3.74674 0.705146
thorax -4.73857 1.81154 -0.981688
lowerneck -17.3356 -2.68247 -1.32004
upperneck 18.7973 -3.59838 1.1298
head 8.78352 -1.66289 0.14956
rclavicle 3.01966e-014 1.68967e-015
rhumerus -27.2163 -15.9277 -80.5447
rradius 30.8311
rwrist 1.22115
rhand -17.1048 21.4377
rfingers 7.12502
rthumb 9.13419 -8.34445
lclavicle 3.01966e-014 1.68967e-015
lhumerus -37.3806 11.1541 78.254
lradius 17.9097
lwrist 2.55327
lhand -25.5232 14.805
lfingers 7.12502
lthumb 1.00626 44.7824
rfemur 0.882404 3.33078 27.1178
rtibia 56.9884
rfoot 16.8294 -0.0589059
rtoes 9.82603
lfemur -21.2538 -1.37938 -18.5898
ltibia 29.6055
lfoot -4.34518 -5.86689
ltoes 2.99639
348
root 5.58915 17.7881 34.8485 -2.85883 -5.59415 -2.84678
lowerback 10.1183 2.65583 1.92201
upperback 0.501577 3.78431 0.635775
thorax -5.06388 1.82835 -0.954899
lowerneck -17.1737 -2.71099 -1.41068
upperneck 18.6732 -3.64045 1.25219
head 8.71696 -1.67785 0.20347
rclavicle -2.47922e-014 -1.21259e-014
rhumerus -27.6311 -15.8693 -80.5563
rradius 30.8463
rwrist 1.33762
rhand -17.1016 21.0654
rfingers 7.12502
rthumb 9.13731 -8.71664
lclavicle -2.47922e-014 -1.21259e-014
lhumerus -37.4359 11.2893 78.0292
lradius 17.9661
lwrist 2.2831
lhand -24.2427 20.3531
lfingers 7.12502
lthumb 2.24299 50.3211
rfemur -0.750849 3.40585 26.6767
rtibia 59.5373
rfoot 20.1589 -0.793978
rtoes 13.4358
lfemur -20.4331 -1.28432 -18.9542
ltibia 29.4546
lfoot -4.43212 -5.54855
ltoes 3.02964
349
root 5.60352 17.8094 35.0424 -2.89666 -5.68928 -2.38337
lowerback 10.0899 2.67032 1.56274
upperback 0.312283 3.75828 0.497646
thorax -5.26078 1.81893 -0.899078
lowerneck -16.5411 -2.73297 -1.5494
upperneck 18.5471 -3.66431 1.35993
head 8.5659 -1.69277 0.268796
rclavicle 1.39242e-014 -4.27387e-015
rhumerus -28.2333 -15.9731 -80.4779
rradius 30.636
rwrist 1.45963
rhand -17.2656 21.1821
rfingers 7.12502
rthumb 8.97909 -8.60686
lclavicle 1.39242e-014 -4.27387e-015
lhumerus -37.8201 10.6437 78.121
lradius 18.2588
lwrist 2.89869
lhand -25.2722 15.7624
lfingers 7.12502
lthumb 1.24868 45.7385
rfemur -2.39188 3.23993 25.9372
rtibia 61.9682
rfoot 22.2265 -1.27368
rtoes 12.292
lfemur -19.6267 -1.3199 -19.6143
ltibia 29.1454
lfoot -5.08731 -5.1816
ltoes 1.34632
350
root 5.61611 17.8313 35.2441 -2.91823 -5.73516 -1.50983
lowerback 9.8107 2.63195 0.66543
upperback 0.491738 3.58854 0.301161
thorax -4.96226 1.75858 -0.558467
lowerneck -16.9529 -2.61394 -1.43137
upperneck 18.4271 -3.50544 1.27949
head 8.59264 -1.61605 0.237277
rclavicle -6.17475e-015 7.05686e-015
rhumerus -27.8253 -16.1064 -80.6423
rradius 29.9666
rwrist 1.78839
rhand -17.3011 21.5184
rfingers 7.12502
rthumb 8.94478 -8.27196
lclavicle -6.17475e-015 7.05686e-015
lhumerus -37.4329 10.4489 78.2566
lradius 18.4107
lwrist 3.44118
lhand -26.3518 12.0854
lfingers 7.12502
lthumb 0.205982 42.065
rfemur -3.96481 3.02366 24.7311
rtibia 64.2356
rfoot 22.7773 -2.00842
rtoes 11.5818
lfemur -18.7873 -1.33368 -20.7604
ltibia 28.8792
lfoot -5.91025 -4.83914
ltoes 0.382784
